# xmcd CD database file
#
# Track frame offsets:
#	150
#	18636
#	32316
#	49219
#	67139
#	82293
#	98691
#	114307
#	132262
#	147402
#	161988
#	176039
#
# Disc length: 2568 seconds
#
# Revision: 0
# Processed by: cddbd v1.5.2PL0 Copyright (c) Steve Scherf et al.
# Submitted via: CDex 1.51
#
DISCID=ac0a060c
DTITLE=Dolly Parton  - Better Day
DYEAR=2011
DGENRE=Country
TTITLE0=In the Meantime
TTITLE1=Just Leaving
TTITLE2=Somebody's Missing You
TTITLE3=Together You and I
TTITLE4=Country is as Country Does
TTITLE5=Holding Everything
TTITLE6=The Sacrifice
TTITLE7=I Just Might
TTITLE8=Better Day
TTITLE9=Shine Like the Sun
TTITLE10=Get Out and Stay Out
TTITLE11=Let Love Grow
EXTD=YEAR: 2011
EXTT0=
EXTT1=
EXTT2=
EXTT3=
EXTT4=
EXTT5=
EXTT6=
EXTT7=
EXTT8=
EXTT9=
EXTT10=
EXTT11=
PLAYORDER=
